1.9Hzhigh3min_grf.mot
version=1
nRows=22
nColumns 19
inDegrees=yes
endheader
time	1_ground_force_vx	1_ground_force_vy	1_ground_force_vz	1_ground_force_px	1_ground_force_py	1_ground_force_pz	1_ground_torque_x	1_ground_torque_y	1_ground_torque_z	2_ground_force_vx	2_ground_force_vy	2_ground_force_vz	2_ground_force_px	2_ground_force_py	2_ground_force_pz	2_ground_torque_x	2_ground_torque_y	2_ground_torque_z
            1.253500	            8.007750	          640.164405	          -48.497521	           -0.405592	            0.006059	           -0.374337	           -0.031419	           -2.511713	            0.190282	           17.193958	          575.406194	           37.616623	           -0.433745	            0.004675	           -0.629549	            0.038701	            1.295159	            0.084670
            1.254000	            8.057402	          631.147334	          -47.665017	           -0.405409	            0.006059	           -0.374325	           -0.033322	           -2.610159	            0.197122	           17.035699	          567.303798	           37.353151	           -0.433642	            0.004674	           -0.629280	            0.041131	            1.369711	            0.090186
            1.254500	            8.335858	          623.752925	          -46.871985	           -0.405310	            0.006057	           -0.374003	           -0.034095	           -2.551258	            0.191715	           17.203729	          559.573545	           36.340004	           -0.433714	            0.004673	           -0.629062	            0.047417	            1.542283	            0.100159
            1.255000	            8.750465	          614.558896	          -46.774866	           -0.405116	            0.006057	           -0.374009	           -0.034254	           -2.405724	            0.183103	           17.369454	          552.577131	           36.127264	           -0.433425	            0.004674	           -0.629128	            0.045550	            1.449079	            0.094740
            1.255500	            9.714031	          606.087805	          -47.088720	           -0.405082	            0.006056	           -0.373749	           -0.036618	           -2.284736	            0.177508	           18.096380	          545.769505	           35.164092	           -0.433293	            0.004676	           -0.629438	            0.043003	            1.296929	            0.083562
            1.256000	           11.044439	          597.075897	          -47.405803	           -0.404993	            0.006056	           -0.373751	           -0.040763	           -2.203690	            0.174966	           18.876845	          537.120306	           34.288186	           -0.433591	            0.004674	           -0.629134	            0.036973	            1.052034	            0.067159
            1.256500	           11.505605	          587.700401	          -47.034428	           -0.405253	            0.006058	           -0.374095	           -0.045122	           -2.304788	            0.184455	           19.096585	          528.099503	           33.739701	           -0.434020	            0.004671	           -0.628635	            0.033733	            0.932863	            0.059600
            1.257000	           12.012905	          579.225487	          -46.475885	           -0.405152	            0.006057	           -0.373928	           -0.050355	           -2.427958	            0.194814	           19.118750	          521.841990	           32.731871	           -0.433716	            0.004672	           -0.628788	            0.041577	            1.134838	            0.071181
            1.257500	           11.925057	          571.289651	          -45.546690	           -0.405004	            0.006056	           -0.373804	           -0.050104	           -2.400329	            0.191369	           18.817867	          514.292238	           32.282718	           -0.433506	            0.004673	           -0.628872	            0.048084	            1.314131	            0.082490
            1.258000	           12.295837	          562.272370	          -44.623278	           -0.404644	            0.006056	           -0.373575	           -0.051540	           -2.356838	            0.187044	           18.656764	          506.927972	           31.599522	           -0.433553	            0.004674	           -0.629031	            0.055755	            1.514948	            0.094435
            1.258500	           12.849225	          553.076083	          -44.022082	           -0.404667	            0.006056	           -0.373575	           -0.055336	           -2.381839	            0.189582	           19.104852	          499.564733	           31.244563	           -0.433226	            0.004675	           -0.628954	            0.053498	            1.398892	            0.087492
            1.259000	           13.676290	          543.341760	          -44.020010	           -0.405062	            0.006056	           -0.373665	           -0.056489	           -2.244234	            0.181821	           19.459018	          492.202997	           30.373436	           -0.433120	            0.004677	           -0.629444	            0.052048	            1.316531	            0.081242
            1.259500	           14.457152	          534.328763	          -44.106452	           -0.405147	            0.006056	           -0.373678	           -0.058885	           -2.176372	            0.179650	           19.956534	          484.104034	           29.828117	           -0.433287	            0.004674	           -0.628810	            0.040206	            0.975312	            0.060094
            1.260000	           15.146766	          526.035949	          -43.960291	           -0.404779	            0.006056	           -0.373697	           -0.064893	           -2.253699	            0.188339	           20.455236	          475.637900	           28.952987	           -0.433650	            0.004671	           -0.628323	            0.039762	            0.924580	            0.056281
            1.260500	           15.423628	          518.644293	          -43.809242	           -0.404550	            0.006055	           -0.373462	           -0.065755	           -2.211123	            0.186771	           21.138054	          468.092872	           28.174919	           -0.433753	            0.004670	           -0.628262	            0.040608	            0.899242	            0.054126
            1.261000	           15.473980	          508.905237	          -42.750554	           -0.404868	            0.006055	           -0.373507	           -0.067844	           -2.231234	            0.187435	           20.928956	          461.095212	           27.915410	           -0.433529	            0.004672	           -0.628666	            0.050976	            1.123080	            0.067993
            1.261500	           15.845003	          500.428133	          -41.687251	           -0.404568	            0.006055	           -0.373514	           -0.068046	           -2.149087	            0.179026	           20.957288	          453.178865	           27.324019	           -0.433603	            0.004671	           -0.628308	            0.055407	            1.198115	            0.072239
            1.262000	           16.123073	          491.412543	          -41.176311	           -0.404658	            0.006055	           -0.373548	           -0.069349	           -2.113685	            0.177109	           20.750125	          445.629285	           26.921754	           -0.434011	            0.004670	           -0.628413	            0.055454	            1.190930	            0.071948
            1.262500	           16.721620	          483.479003	          -40.753241	           -0.404622	            0.006056	           -0.373604	           -0.073711	           -2.131222	            0.179644	           21.105678	          437.898704	           26.190097	           -0.433848	            0.004670	           -0.628281	            0.048751	            1.011490	            0.060496
            1.263000	           17.410566	          474.466442	          -40.931160	           -0.404530	            0.006055	           -0.373392	           -0.077335	           -2.107495	            0.181809	           21.690145	          431.642384	           25.416668	           -0.433217	            0.004674	           -0.628796	            0.044494	            0.885450	            0.052139
            1.263500	           17.962229	          465.994031	          -40.968855	           -0.404735	            0.006055	           -0.373384	           -0.081233	           -2.107436	            0.185280	           22.378322	          422.623835	           24.727200	           -0.434103	            0.004668	           -0.627990	            0.040652	            0.767737	            0.044919
            1.264000	           18.651812	          457.881452	          -40.821921	           -0.404397	            0.006055	           -0.373418	           -0.079467	           -1.950829	            0.173924	           22.918640	          415.630387	           24.045019	           -0.433694	            0.004670	           -0.628091	            0.043929	            0.796656	            0.046088
